<svg width="150" height="22" xmlns="http://www.w3.org/2000/svg"><g fill="none" fill-rule="evenodd"><path d="M5.544 11.424L2.616 18H.48l3.216-7.032a4.573 4.573 0 0 1-1.824-1.692c-.464-.744-.696-1.756-.696-3.036 0-.896.132-1.684.396-2.364.264-.68.624-1.244 1.08-1.692a4.44 4.44 0 0 1 1.596-1.008A5.51 5.51 0 0 1 6.168.84h2.76V18H7.08v-6.576H5.544zM7.08 2.4h-.984c-.368 0-.728.068-1.08.204a2.472 2.472 0 0 0-.936.648c-.272.296-.492.688-.66 1.176-.168.488-.252 1.092-.252 1.812 0 .688.076 1.264.228 1.728.152.464.36.84.624 1.128.264.288.576.492.936.612.36.12.74.18 1.14.18h.984V2.4z" fill="#FF3029"/><path d="M27.456 20.376h-1.68V18h-5.184v2.376h-1.68v-3.912h.744c.272-.64.488-1.348.648-2.124.16-.776.284-1.576.372-2.4.088-.824.144-1.664.168-2.52.024-.856.036-1.684.036-2.484V5.904h5.616v10.56h.96v3.912zm8.136-3.192a4.57 4.57 0 0 1-1.32.72 4.926 4.926 0 0 1-1.656.264c-1.248 0-2.232-.484-2.952-1.452-.72-.968-1.08-2.388-1.08-4.26 0-.976.068-1.872.204-2.688.136-.816.352-1.524.648-2.124.296-.6.676-1.068 1.14-1.404.464-.336 1.016-.504 1.656-.504.496 0 .952.1 1.368.3.416.2.768.524 1.056.972.288.448.512 1.028.672 1.74.16.712.24 1.58.24 2.604v1.032h-5.04c0 1.376.188 2.416.564 3.12.376.704.94 1.056 1.692 1.056.528 0 .996-.092 1.404-.276.408-.184.732-.364.972-.54l.432 1.44zm-17.76-11.28V18h-1.848v-5.424H13.2V18h-1.872V5.904H13.2v5.136h2.784V5.904h1.848zm21.528 6.072V18h-1.872V5.904h1.872v5.592l2.904-5.592h1.896l-3 5.688L44.592 18h-2.04l-3.192-6.024zm9.624 6.192c-1.296 0-2.312-.516-3.048-1.548-.736-1.032-1.104-2.588-1.104-4.668 0-.944.092-1.8.276-2.568.184-.768.456-1.42.816-1.956.36-.536.808-.952 1.344-1.248.536-.296 1.156-.444 1.86-.444.544 0 .984.06 1.32.18.336.12.64.268.912.444l-.264 1.776a4.069 4.069 0 0 0-.9-.588 2.457 2.457 0 0 0-1.092-.252c-.672 0-1.224.376-1.656 1.128-.432.752-.648 1.896-.648 3.432 0 1.52.18 2.692.54 3.516.36.824.924 1.236 1.692 1.236.464 0 .864-.076 1.2-.228a3.5 3.5 0 0 0 .84-.516l.432 1.392c-.32.272-.68.492-1.08.66-.4.168-.88.252-1.44.252zM24.648 7.416H22.56v.216c0 .64-.012 1.34-.036 2.1-.024.76-.076 1.532-.156 2.316-.08.784-.192 1.556-.336 2.316a11.32 11.32 0 0 1-.6 2.1h3.216V7.416zm7.584-.144c-.576 0-.984.324-1.224.972-.24.648-.392 1.516-.456 2.604h3.096c0-.512-.024-.988-.072-1.428a5.73 5.73 0 0 0-.228-1.14c-.104-.32-.248-.568-.432-.744a.951.951 0 0 0-.684-.264zm31.344-5.448h-5.112V18h-1.2V.84h7.512V18h-1.2V1.824zm4.392 10.32c.032 1.664.264 2.932.696 3.804.432.872 1.088 1.308 1.968 1.308.4 0 .752-.064 1.056-.192.304-.128.56-.28.768-.456.24-.176.448-.392.624-.648l.36.912a2.876 2.876 0 0 1-.696.696c-.24.176-.536.332-.888.468s-.768.204-1.248.204c-1.28 0-2.224-.552-2.832-1.656-.608-1.104-.912-2.648-.912-4.632 0-.992.088-1.876.264-2.652.176-.776.42-1.436.732-1.98s.684-.956 1.116-1.236c.432-.28.904-.42 1.416-.42.528 0 1 .136 1.416.408.416.272.76.68 1.032 1.224.272.544.464 1.22.576 2.028.112.808.12 1.748.024 2.82h-5.472zM70.392 6.6c-.64 0-1.188.396-1.644 1.188-.456.792-.708 1.948-.756 3.468h4.392c.096-1.616-.06-2.796-.468-3.54C71.508 6.972 71 6.6 70.392 6.6zm8.544 10.728c.768 0 1.384-.46 1.848-1.38.464-.92.696-2.34.696-4.26 0-1.6-.2-2.84-.6-3.72-.4-.88-.952-1.32-1.656-1.32a1.6 1.6 0 0 0-.78.204c-.248.136-.48.316-.696.54a4.236 4.236 0 0 0-.588.78 6.605 6.605 0 0 0-.456.924v6.768c.24.496.536.864.888 1.104.352.24.8.36 1.344.36zm-.072.888c-.464 0-.884-.1-1.26-.3a2.627 2.627 0 0 1-.9-.756v4.584h-1.128V5.904h.984l.096 1.992a5.615 5.615 0 0 1 1.08-1.548c.448-.456 1.008-.684 1.68-.684.496 0 .944.144 1.344.432.4.288.736.692 1.008 1.212s.48 1.144.624 1.872c.144.728.216 1.532.216 2.412 0 2.224-.344 3.884-1.032 4.98-.688 1.096-1.592 1.644-2.712 1.644zm6.384-6.072c.032 1.664.264 2.932.696 3.804.432.872 1.088 1.308 1.968 1.308.4 0 .752-.064 1.056-.192.304-.128.56-.28.768-.456.24-.176.448-.392.624-.648l.36.912a2.876 2.876 0 0 1-.696.696c-.24.176-.536.332-.888.468s-.768.204-1.248.204c-1.28 0-2.224-.552-2.832-1.656-.608-1.104-.912-2.648-.912-4.632 0-.992.088-1.876.264-2.652.176-.776.42-1.436.732-1.98s.684-.956 1.116-1.236c.432-.28.904-.42 1.416-.42.528 0 1 .136 1.416.408.416.272.76.68 1.032 1.224.272.544.464 1.22.576 2.028.112.808.12 1.748.024 2.82h-5.472zM87.672 6.6c-.64 0-1.188.396-1.644 1.188-.456.792-.708 1.948-.756 3.468h4.392c.096-1.616-.06-2.796-.468-3.54-.408-.744-.916-1.116-1.524-1.116zm6.288.24V18h-1.104V5.904h5.112v.936H93.96zm8.664 11.4a2.832 2.832 0 0 1-1.464-.396c-.448-.264-.836-.652-1.164-1.164-.328-.512-.588-1.156-.78-1.932-.192-.776-.288-1.684-.288-2.724 0-1.008.096-1.908.288-2.7.192-.792.452-1.456.78-1.992s.716-.948 1.164-1.236a2.655 2.655 0 0 1 1.464-.432 2.9 2.9 0 0 1 1.464.384c.448.256.836.644 1.164 1.164.328.52.588 1.168.78 1.944.192.776.288 1.684.288 2.724 0 1.008-.096 1.904-.288 2.688-.192.784-.452 1.448-.78 1.992s-.716.96-1.164 1.248a2.655 2.655 0 0 1-1.464.432zm0-.912c.704 0 1.308-.44 1.812-1.32.504-.88.756-2.232.756-4.056 0-.944-.068-1.756-.204-2.436-.136-.68-.32-1.236-.552-1.668-.232-.432-.504-.748-.816-.948-.312-.2-.644-.3-.996-.3-.704 0-1.308.432-1.812 1.296-.504.864-.756 2.216-.756 4.056 0 .944.068 1.756.204 2.436.136.68.32 1.236.552 1.668.232.432.504.752.816.96.312.208.644.312.996.312zm5.76.672V5.904h2.544c1.072 0 1.888.248 2.448.744s.84 1.224.84 2.184c0 .608-.136 1.152-.408 1.632-.272.48-.704.856-1.296 1.128.784.224 1.356.584 1.716 1.08.36.496.54 1.112.54 1.848 0 1.2-.344 2.08-1.032 2.64-.688.56-1.608.84-2.76.84h-2.592zm1.104-11.208v4.488h1.392c.672 0 1.216-.188 1.632-.564.416-.376.624-.988.624-1.836 0-.768-.2-1.308-.6-1.62-.4-.312-.952-.468-1.656-.468h-1.392zm0 5.328v5.016h1.488c.784 0 1.424-.188 1.92-.564.496-.376.744-1.036.744-1.98 0-.88-.228-1.512-.684-1.896-.456-.384-1.124-.576-2.004-.576h-1.464zm10.368 6.12a2.832 2.832 0 0 1-1.464-.396c-.448-.264-.836-.652-1.164-1.164-.328-.512-.588-1.156-.78-1.932-.192-.776-.288-1.684-.288-2.724 0-1.008.096-1.908.288-2.7.192-.792.452-1.456.78-1.992s.716-.948 1.164-1.236a2.655 2.655 0 0 1 1.464-.432 2.9 2.9 0 0 1 1.464.384c.448.256.836.644 1.164 1.164.328.52.588 1.168.78 1.944.192.776.288 1.684.288 2.724 0 1.008-.096 1.904-.288 2.688-.192.784-.452 1.448-.78 1.992s-.716.96-1.164 1.248a2.655 2.655 0 0 1-1.464.432zm0-.912c.704 0 1.308-.44 1.812-1.32.504-.88.756-2.232.756-4.056 0-.944-.068-1.756-.204-2.436-.136-.68-.32-1.236-.552-1.668-.232-.432-.504-.748-.816-.948-.312-.2-.644-.3-.996-.3-.704 0-1.308.432-1.812 1.296-.504.864-.756 2.216-.756 4.056 0 .944.068 1.756.204 2.436.136.68.32 1.236.552 1.668.232.432.504.752.816.96.312.208.644.312.996.312zm9.12 0c.768 0 1.384-.46 1.848-1.38.464-.92.696-2.34.696-4.26 0-1.6-.2-2.84-.6-3.72-.4-.88-.952-1.32-1.656-1.32a1.6 1.6 0 0 0-.78.204c-.248.136-.48.316-.696.54a4.236 4.236 0 0 0-.588.78 6.605 6.605 0 0 0-.456.924v6.768c.24.496.536.864.888 1.104.352.24.8.36 1.344.36zm-.072.888c-.464 0-.884-.1-1.26-.3a2.627 2.627 0 0 1-.9-.756v4.584h-1.128V5.904h.984l.096 1.992a5.615 5.615 0 0 1 1.08-1.548c.448-.456 1.008-.684 1.68-.684.496 0 .944.144 1.344.432.4.288.736.692 1.008 1.212s.48 1.144.624 1.872c.144.728.216 1.532.216 2.412 0 2.224-.344 3.884-1.032 4.98-.688 1.096-1.592 1.644-2.712 1.644zm7.032-.216h-1.128V5.904h1.128v5.688l4.056-5.688h1.104l-3.984 5.616 4.272 6.48h-1.248l-4.2-6.264V18zm12.48-8.424c0-.32.008-.612.024-.876s.04-.524.072-.78h-.072c-.08.272-.176.532-.288.78-.112.248-.232.508-.36.78L143.856 18h-.96V5.904h1.056v8.4a14.037 14.037 0 0 1-.096 1.704h.072c.08-.272.176-.54.288-.804.112-.264.232-.532.36-.804l3.936-8.496h.984V18h-1.08V9.576z" fill="#000"/></g></svg>